<svg xmlns="http://www.w3.org/2000/svg" width="38" height="38" viewBox="0 0 38 38">
  <g id="building2" transform="translate(-994.903 -401)">
    <circle id="Ellipse_509" data-name="Ellipse 509" cx="19" cy="19" r="19" transform="translate(994.903 401)" fill="#181f2f"/>
    <path id="building" d="M5.833,11.667A.833.833,0,0,1,5,12.5H4.167a.833.833,0,0,1,0-1.667H5A.833.833,0,0,1,5.833,11.667Zm3.333-.833H8.333a.833.833,0,0,0,0,1.667h.833a.833.833,0,1,0,0-1.667ZM5,14.167H4.167a.833.833,0,0,0,0,1.667H5a.833.833,0,0,0,0-1.667Zm4.167,0H8.333a.833.833,0,0,0,0,1.667h.833a.833.833,0,1,0,0-1.667ZM5,4.167H4.167a.833.833,0,1,0,0,1.667H5A.833.833,0,0,0,5,4.167Zm4.167,0H8.333a.833.833,0,0,0,0,1.667h.833a.833.833,0,1,0,0-1.667ZM5,7.5H4.167a.833.833,0,1,0,0,1.667H5A.833.833,0,0,0,5,7.5Zm4.167,0H8.333a.833.833,0,0,0,0,1.667h.833a.833.833,0,1,0,0-1.667ZM20,8.333v7.5A4.172,4.172,0,0,1,15.833,20H4.167A4.172,4.172,0,0,1,0,15.833V4.167A4.172,4.172,0,0,1,4.167,0h5a4.172,4.172,0,0,1,4.167,4.167h2.5A4.172,4.172,0,0,1,20,8.333Zm-15.833,10h7.5V4.167a2.5,2.5,0,0,0-2.5-2.5h-5a2.5,2.5,0,0,0-2.5,2.5V15.833a2.5,2.5,0,0,0,2.5,2.5Zm14.167-10a2.5,2.5,0,0,0-2.5-2.5h-2.5v12.5h2.5a2.5,2.5,0,0,0,2.5-2.5Zm-2.5,2.5a.833.833,0,1,0,.833.833A.833.833,0,0,0,15.833,10.833Zm0,3.333a.833.833,0,1,0,.833.833A.833.833,0,0,0,15.833,14.167Zm0-6.667a.833.833,0,1,0,.833.833A.833.833,0,0,0,15.833,7.5Z" transform="translate(1004.551 410)" fill="#fff"/>
  </g>
</svg>
