<svg xmlns="http://www.w3.org/2000/svg" width="18.36" height="18.358" viewBox="0 0 18.36 18.358">
  <path id="chart-tree" d="M16.725,13.867a4.083,4.083,0,0,0-3.97-3.157H10.327V9.473a4.805,4.805,0,1,0-2.295,0V10.71H5.6a4.083,4.083,0,0,0-3.97,3.157,2.295,2.295,0,1,0,2.234.528A1.783,1.783,0,0,1,5.6,13H8.032v1.071a2.295,2.295,0,1,0,2.295,0V13h2.428a1.783,1.783,0,0,1,1.736,1.39,2.295,2.295,0,1,0,2.234-.528ZM6.669,4.807A2.511,2.511,0,1,1,9.179,7.317,2.511,2.511,0,0,1,6.669,4.807Z" transform="translate(0.001 -0.002)" fill="#fff"/>
</svg>
