<svg id="company" xmlns="http://www.w3.org/2000/svg" width="38" height="38" viewBox="0 0 38 38">
  <circle id="Ellipse_507" data-name="Ellipse 507" cx="19" cy="19" r="19" fill="#181f2f"/>
  <path id="bank" d="M19.518,18.7a.813.813,0,0,1-.813.813H.813a.813.813,0,1,1,0-1.626H18.7A.813.813,0,0,1,19.518,18.7ZM.236,6.955A1.987,1.987,0,0,1,.361,4.868a3.835,3.835,0,0,1,1.356-1.22L7.817.473a4.208,4.208,0,0,1,3.882,0L17.8,3.65a3.835,3.835,0,0,1,1.356,1.22,1.987,1.987,0,0,1,.124,2.087,2.206,2.206,0,0,1-1.965,1.175h-.237v6.506h.813a.813.813,0,0,1,0,1.626H1.626a.813.813,0,0,1,0-1.626h.813V8.132H2.2A2.206,2.206,0,0,1,.236,6.955Zm3.83,7.684h2.44V8.132H4.066ZM8.132,8.132v6.506h3.253V8.132Zm7.319,0h-2.44v6.506h2.44ZM1.677,6.2a.583.583,0,0,0,.525.3H17.315a.583.583,0,0,0,.525-.3.368.368,0,0,0-.02-.407,2.2,2.2,0,0,0-.772-.7l-6.1-3.177a2.583,2.583,0,0,0-2.38,0L2.47,5.091a2.206,2.206,0,0,0-.772.7.368.368,0,0,0-.021.406Z" transform="translate(9.552 8.502)" fill="#fff"/>
</svg>
