<svg xmlns="http://www.w3.org/2000/svg" width="20.002" height="21.826" viewBox="0 0 20.002 21.826">
  <path id="dice-d6" d="M18.794,3.92,13.339.647a4.534,4.534,0,0,0-4.678,0L3.207,3.92A4.57,4.57,0,0,0,1,7.819V14a4.57,4.57,0,0,0,2.207,3.9l5.455,3.273a4.532,4.532,0,0,0,4.678,0L18.794,17.9A4.57,4.57,0,0,0,21,14V7.819a4.57,4.57,0,0,0-2.207-3.9ZM9.6,2.207a2.718,2.718,0,0,1,2.806,0L17.859,5.48a2.707,2.707,0,0,1,.418.31L11,10.154,3.73,5.79a2.665,2.665,0,0,1,.418-.31ZM4.143,16.34A2.741,2.741,0,0,1,2.818,14V7.819a2.619,2.619,0,0,1,.035-.432l7.238,4.341v8.117a2.747,2.747,0,0,1-.494-.234ZM19.184,14a2.743,2.743,0,0,1-1.325,2.339L12.4,19.613a2.747,2.747,0,0,1-.494.234V11.728l7.238-4.342a2.619,2.619,0,0,1,.035.433Z" transform="translate(-1 0.003)" fill="#fff"/>
</svg>
