<svg id="Layer_1" data-name="Layer 1" xmlns="http://www.w3.org/2000/svg" viewBox="0 0 128 128"><defs><style>.cls-1{fill:#fff;}</style></defs><title>E-waste Prevented</title><path class="cls-1" d="M30.86,113.85H23.17a8.06,8.06,0,0,1-8.05-8V14.05a8.06,8.06,0,0,1,8.05-8H80.31a8.06,8.06,0,0,1,8,8.05V81.82a2,2,0,0,1-4,0V14.05a4.05,4.05,0,0,0-4-4.05H23.17a4.05,4.05,0,0,0-4.05,4.05v91.76a4,4,0,0,0,4.05,4h7.69a2,2,0,0,1,0,4Z"/><path class="cls-1" d="M30.86,99.6H26.57a4.17,4.17,0,0,1-4.16-4.16V22.12A4.17,4.17,0,0,1,26.57,18H76.9a4.17,4.17,0,0,1,4.16,4.17v59.7a2,2,0,0,1-4,0V22.12A.17.17,0,0,0,76.9,22H26.57a.17.17,0,0,0-.16.17V95.44a.16.16,0,0,0,.16.16h4.29a2,2,0,0,1,0,4Z"/><path class="cls-1" d="M101.41,122H33.84a5,5,0,0,1-5-5V84.79a5,5,0,0,1,5-5h67.57a5,5,0,0,1,5,5V117A5,5,0,0,1,101.41,122ZM33.84,83.82a1,1,0,0,0-1,1V117a1,1,0,0,0,1,1h67.57a1,1,0,0,0,1-1V84.79a1,1,0,0,0-1-1Z"/><path class="cls-1" d="M106.7,113.06h-2.32a2,2,0,0,1,0-4h2.32a2.18,2.18,0,0,0,2.18-2.18V94.93a2.19,2.19,0,0,0-2.18-2.18h-2.32a2,2,0,0,1,0-4h2.32a6.19,6.19,0,0,1,6.18,6.18v11.95A6.18,6.18,0,0,1,106.7,113.06Z"/><path class="cls-1" d="M71.38,113a2,2,0,0,1-1.11-.34L48,97.84a2,2,0,0,1,1.59-3.6l12,3,.3-6.48A2,2,0,0,1,65,89.17L87.22,104a2,2,0,0,1-1.59,3.61l-11.95-3-.3,6.48a2,2,0,0,1-2,1.91ZM59.85,100.91l9.69,6.45L69.8,102a2,2,0,0,1,.8-1.51,2,2,0,0,1,1.68-.34l3.12.78-9.7-6.45-.25,5.38a2,2,0,0,1-.8,1.51,2,2,0,0,1-1.68.34Z"/><path class="cls-1" d="M38.75,16.2a2.52,2.52,0,1,1,2.52-2.52A2.52,2.52,0,0,1,38.75,16.2Z"/><path class="cls-1" d="M66.28,16a2.35,2.35,0,1,1,2.35-2.35A2.35,2.35,0,0,1,66.28,16Z"/><path class="cls-1" d="M59.9,15.68H45.13a2,2,0,0,1,0-4H59.9a2,2,0,0,1,0,4Z"/><path class="cls-1" d="M51.8,70.78a2,2,0,0,1-1-.3c-.65-.4-15.85-10-12.18-23.28a33.81,33.81,0,0,1,5-11C45,34,45.6,33.13,45.13,30.11a2,2,0,0,1,2.72-2.17c.62.25,15.27,6.25,17.37,18.26C66.56,53.85,62.49,62,53.13,70.27A2,2,0,0,1,51.8,70.78ZM49.21,33.06a11.38,11.38,0,0,1-2.33,5.36,30.23,30.23,0,0,0-4.46,9.84c-2.34,8.48,6,15.59,9.21,18,7.43-6.94,10.67-13.44,9.65-19.33C60.08,40,53.2,35.25,49.21,33.06Z"/><path class="cls-1" d="M45.93,76.68a2,2,0,0,1-1.16-3.62c14.42-10.31,6.41-31.3,6.33-31.52a2,2,0,0,1,3.72-1.46c.09.24,9.25,24.11-7.73,36.23A2,2,0,0,1,45.93,76.68Z"/></svg>