<svg id="Layer_1" data-name="Layer 1" xmlns="http://www.w3.org/2000/svg" viewBox="0 0 128 128"><defs><style>.cls-1{fill:#befe48;}</style></defs><title>Electric Savings</title><path class="cls-1" d="M77.77,99.69A29.52,29.52,0,0,1,66,97c-10.37-4.51-14.8,1-15,1.19a2,2,0,0,1-2.8.36,2,2,0,0,1-.39-2.77c.25-.34,6.38-8.27,19.77-2.45,11.51,5,18,1.08,24.33-2.7,4.91-2.94,17.4-10.75,24.41-15.15a3.51,3.51,0,0,0,1.05-4.94,3.55,3.55,0,0,0-4.18-1.35L87.23,81a2,2,0,0,1-1.65-3.64l26-11.8.1,0a7.57,7.57,0,0,1,9,2.84,7.52,7.52,0,0,1-2.26,10.55c-7,4.4-19.53,12.23-24.47,15.19C89.67,96.66,84.62,99.69,77.77,99.69Z"/><path class="cls-1" d="M82.36,83.16l-.53,0c-4-.29-10.07-.86-16.57-2a2,2,0,0,1,.66-3.94c6.34,1.06,12.31,1.62,16.19,1.9a3.09,3.09,0,0,0,3.34-2.81,3.13,3.13,0,0,0-1.71-3.09c-7.6-3.71-20.36-5.56-29.69-4.3C43.51,70.36,33.54,80.06,33.44,80.16a2,2,0,1,1-2.81-2.85c.45-.44,11-10.73,22.88-12.33,10.18-1.37,23.63.6,32,4.68a7.12,7.12,0,0,1-3.13,13.5Z"/><path class="cls-1" d="M90.08,78.1a2,2,0,0,1-1.3-.48,2,2,0,0,1-.22-2.82l12.53-14.61a7.63,7.63,0,0,1,12.72,8.16,2,2,0,0,1-3.64-1.65,3.68,3.68,0,0,0,.34-1.55,3.65,3.65,0,0,0-3.87-3.62,3.62,3.62,0,0,0-2.52,1.26L91.6,77.41A2,2,0,0,1,90.08,78.1Z"/><path class="cls-1" d="M36.55,121.83a2,2,0,0,1-1.38-3.45l9.45-9a9.14,9.14,0,0,0,.29-12.91L31.74,82.67a9.14,9.14,0,0,0-12.9-.29L9.38,91.43a2,2,0,1,1-2.76-2.89l9.45-9.05a13.15,13.15,0,0,1,18.56.41L47.8,93.67a13.15,13.15,0,0,1-.41,18.56l-9.46,9A2,2,0,0,1,36.55,121.83Z"/><circle class="cls-1" cx="37.45" cy="103.03" r="4.48"/><path class="cls-1" d="M79.53,63.67a2,2,0,0,1-2-2.39L81.23,43H70.9a2,2,0,0,1-1.74-1,2,2,0,0,1,0-2L88.86,7.15a2,2,0,0,1,3.68,1.42L88.87,26.88H99.2a2,2,0,0,1,1.72,3L81.24,62.7A2,2,0,0,1,79.53,63.67ZM74.43,39h9.24a2,2,0,0,1,2,2.4l-1.88,9.39L95.67,30.88H86.43a2,2,0,0,1-1.54-.73,2,2,0,0,1-.42-1.66l1.88-9.39Z"/></svg>