<svg xmlns="http://www.w3.org/2000/svg" width="20.727" height="19" viewBox="0 0 20.727 19">
  <path id="envelope" d="M16.409,1H4.318A4.323,4.323,0,0,0,0,5.318V15.682A4.323,4.323,0,0,0,4.318,20H16.409a4.323,4.323,0,0,0,4.318-4.318V5.318A4.323,4.323,0,0,0,16.409,1ZM4.318,2.727H16.409a2.591,2.591,0,0,1,2.4,1.63L12.2,10.972a2.6,2.6,0,0,1-3.665,0L1.917,4.357a2.591,2.591,0,0,1,2.4-1.63ZM16.409,18.273H4.318a2.591,2.591,0,0,1-2.591-2.591V6.614L7.31,12.193a4.324,4.324,0,0,0,6.108,0L19,6.614v9.068A2.591,2.591,0,0,1,16.409,18.273Z" transform="translate(0 -1)" fill="#f1f5fb"/>
</svg>
