<svg id="Layer_1" data-name="Layer 1" xmlns="http://www.w3.org/2000/svg" viewBox="0 0 128 128"><defs><style>.cls-1{fill:#296dff;}</style></defs><title>Environmental Impact</title><path class="cls-1" d="M84.67,105.68a28.86,28.86,0,0,1-20.51-8.32C46.36,80.36,43,41.5,42.57,19.85c-.12-7.18.07-11.75.08-11.94a2,2,0,0,1,2.52-1.84c39.13,10.63,63.34,25.43,72,44,4.94,10.64,4.61,22.59-1,34.56a37.38,37.38,0,0,1-8.61,11.8,22.35,22.35,0,0,1-2.86,2.39l-.07.06a33.27,33.27,0,0,1-19,6.82ZM46.58,10.61c0,2-.08,5.22,0,9.17.33,16.92,3,58.09,20.36,74.69a25,25,0,0,0,18.52,7.2,29.21,29.21,0,0,0,16.68-6l.16-.13a17.42,17.42,0,0,0,2.48-2.08,33.52,33.52,0,0,0,7.76-10.59c5.13-11,5.45-21.51,1-31.18C105.57,34.68,83.07,20.85,46.58,10.61Zm56.83,86.64h0Z"/><path class="cls-1" d="M106.77,108a1.47,1.47,0,0,1-.36,0,2,2,0,0,1-1.61-2.32,24.91,24.91,0,0,0-.55-10.28,1.29,1.29,0,0,1,0-.19A10.2,10.2,0,0,0,103.9,94a59.39,59.39,0,0,0-3.17-8.63,102.14,102.14,0,0,0-7.18-12.82c-2.52-4-5.57-8.2-9.32-13-3.2-4-6.61-8.09-10.12-12l-.63-.67c-.24-.25-.48-.5-.7-.76-5.21-5.74-9-9.38-9-9.42a2,2,0,0,1,2.77-2.88c.16.15,3.93,3.77,9.23,9.63l.63.68c.23.24.47.49.7.75,3.57,4,7,8.09,10.29,12.21,3.84,4.91,7,9.26,9.55,13.3a107.26,107.26,0,0,1,7.45,13.33,60.81,60.81,0,0,1,3.37,9.2,12.2,12.2,0,0,1,.41,1.66,28.68,28.68,0,0,1,.58,11.86A2,2,0,0,1,106.77,108Z"/><path class="cls-1" d="M63.46,50.37a2,2,0,0,1-.36-4L75.24,44.2A2,2,0,0,1,76,48.14l-12.13,2.2Z"/><path class="cls-1" d="M85.8,60.29A2,2,0,0,1,84.26,57l7.43-8.88a2,2,0,0,1,3.07,2.57l-7.43,8.87A2,2,0,0,1,85.8,60.29Z"/><path class="cls-1" d="M86.33,78a2,2,0,0,1-1.78-1.08,2,2,0,0,1,.86-2.7l8.9-4.58a2,2,0,1,1,1.83,3.56l-8.9,4.58A2,2,0,0,1,86.33,78Z"/><path class="cls-1" d="M60.85,122a53.26,53.26,0,0,1-27.05-7.35c-1.39-.82-2.62-1.61-3.77-2.41a53.79,53.79,0,0,1-7-5.87,52.51,52.51,0,0,1-12.87-20.8A53.06,53.06,0,0,1,23,30.86a43.76,43.76,0,0,1,5.87-5,53.12,53.12,0,0,1,15-7.92,2,2,0,1,1,1.27,3.79,49.31,49.31,0,0,0-14,7.37,39.35,39.35,0,0,0-5.38,4.61A49.08,49.08,0,0,0,14,84.3a48.49,48.49,0,0,0,11.9,19.23A49.21,49.21,0,0,0,32.33,109c1.06.75,2.21,1.48,3.51,2.25a49.25,49.25,0,0,0,59.86-7.67,46.6,46.6,0,0,0,6-7.37,1.4,1.4,0,0,1,.13-.18,36.49,36.49,0,0,0,2.2-3.55,2,2,0,1,1,3.51,1.92,41,41,0,0,1-2.51,4l0,.06a49.44,49.44,0,0,1-6.49,7.91A53.1,53.1,0,0,1,60.85,122Z"/><path class="cls-1" d="M102.55,86.51a2,2,0,0,1-1.81-1.16,102.3,102.3,0,0,0-7.19-12.84c-2.52-4-5.57-8.2-9.32-13-3.2-4-6.61-8.09-10.12-12l-.63-.67c-.24-.25-.48-.5-.7-.76a2,2,0,0,1,3-2.67c.2.23.41.45.62.68s.47.49.7.75c3.57,4,7,8.09,10.29,12.21,3.84,4.91,7,9.26,9.55,13.3a107.26,107.26,0,0,1,7.45,13.33,2,2,0,0,1-1,2.66A2.08,2.08,0,0,1,102.55,86.51Z"/><path class="cls-1" d="M12,86.94a2,2,0,0,1-1.28-3.54l7.21-6a2,2,0,0,1,2.69.13,3.21,3.21,0,0,0,1.07.69c.19-.26.7-1.3.7-4.47,0-3.35,1-5.47,3-6.29,3.07-1.26,7,1.51,9.35,3.51L38,67.76a25,25,0,0,1,1.75-8.69c.88-2.37,1-2.68-1.1-4.77-3.36-3.36-2.51-7.48-1.84-10.79s1-5.41-.74-7.16l-7.46-7.46a2,2,0,0,1,2.83-2.83l7.46,7.46c3.35,3.36,2.51,7.48,1.83,10.79s-1,5.42.75,7.16c3.64,3.64,3.19,5.82,2,9A20.82,20.82,0,0,0,42,68.6,2,2,0,0,1,41.42,70l-5.19,5.2a2,2,0,0,1-2.82,0c-2.63-2.62-5.68-4.34-6.45-4-.09,0-.53.63-.53,2.59,0,3-.32,7-3.16,8.21a4.45,4.45,0,0,1-4-.48l-6,5A2,2,0,0,1,12,86.94ZM40,68.6h0Z"/><path class="cls-1" d="M80.8,118a1.42,1.42,0,0,1-.29,0l-4.44-.63a2,2,0,0,1-1.13-.57l-9.12-9.12a8.88,8.88,0,0,1-11.65-1.26l-4.73-4.74a10.64,10.64,0,0,1-2.82,4.74l-5.2,5.19a1.94,1.94,0,0,1-1.31.58l-8.83.46a2,2,0,0,1-.21-4l8.07-.42,4.65-4.65a6.44,6.44,0,0,0,2-5.08,2.56,2.56,0,0,1,1.37-2.69c1.45-.6,2.2.13,4.64,2.58L57,103.53c3.67,3.67,7.17.39,7.56,0a2.06,2.06,0,0,1,2.83,0l9.91,9.91,3.78.54a2,2,0,0,1-.28,4Z"/></svg>