<svg id="filter" xmlns="http://www.w3.org/2000/svg" width="38" height="38" viewBox="0 0 38 38">
  <circle id="Ellipse_126" data-name="Ellipse 126" cx="19" cy="19" r="19" fill="#181f2f"/>
  <g id="settings-sliders_1_" data-name="settings-sliders (1)" transform="translate(11.618 11.618)">
    <path id="Path_10240" data-name="Path 10240" d="M.615,2.922H2.3a2.293,2.293,0,0,0,4.426,0h7.425a.615.615,0,1,0,0-1.23H6.724a2.293,2.293,0,0,0-4.426,0H.615a.615.615,0,1,0,0,1.23Zm3.9-1.692A1.077,1.077,0,1,1,3.435,2.307,1.077,1.077,0,0,1,4.511,1.23Z" transform="translate(0 0)" fill="#fff"/>
    <path id="Path_10241" data-name="Path 10241" d="M14.149,9.941H12.466a2.293,2.293,0,0,0-4.426,0H.615a.615.615,0,1,0,0,1.23H8.04a2.293,2.293,0,0,0,4.426,0h1.683a.615.615,0,1,0,0-1.23Zm-3.9,1.692a1.077,1.077,0,1,1,1.077-1.077,1.077,1.077,0,0,1-1.077,1.077Z" transform="translate(0 -3.174)" fill="#fff"/>
    <path id="Path_10242" data-name="Path 10242" d="M14.149,18.192H6.724a2.293,2.293,0,0,0-4.426,0H.615a.615.615,0,0,0,0,1.23H2.3a2.293,2.293,0,0,0,4.426,0h7.425a.615.615,0,1,0,0-1.23ZM4.511,19.883a1.077,1.077,0,1,1,1.077-1.077,1.077,1.077,0,0,1-1.077,1.077Z" transform="translate(0 -6.349)" fill="#fff"/>
  </g>
</svg>
