<svg xmlns="http://www.w3.org/2000/svg" width="24" height="24" viewBox="0 0 24 24">
  <g id="Group_6892" data-name="Group 6892" transform="translate(-1516.278 -870.278)">
    <circle id="Ellipse_504" data-name="Ellipse 504" cx="12" cy="12" r="12" transform="translate(1516.278 870.278)" fill="#181f2f"/>
    <path id="money" d="M9.459,11.966H2.489A2.492,2.492,0,0,1,0,9.476V6.489A2.492,2.492,0,0,1,2.489,4h6.97a2.492,2.492,0,0,1,2.489,2.489V9.476a2.492,2.492,0,0,1-2.489,2.489ZM2.489,5A1.494,1.494,0,0,0,1,6.489V9.476A1.494,1.494,0,0,0,2.489,10.97h6.97a1.494,1.494,0,0,0,1.494-1.494V6.489A1.494,1.494,0,0,0,9.459,5ZM5.974,9.974A1.991,1.991,0,1,1,7.966,7.983,1.991,1.991,0,0,1,5.974,9.974Zm0-2.987a1,1,0,1,0,1,1A1,1,0,0,0,5.974,6.987Zm-3.485-1a.5.5,0,1,0,.5.5A.5.5,0,0,0,2.489,5.991Zm6.472.5a.5.5,0,1,0,.5-.5A.5.5,0,0,0,8.961,6.489ZM2.489,8.979a.5.5,0,1,0,.5.5A.5.5,0,0,0,2.489,8.979Zm6.472.5a.5.5,0,1,0,.5-.5A.5.5,0,0,0,8.961,9.476Z" transform="translate(1522.326 874.317)" fill="#fff"/>
  </g>
</svg>
