<svg xmlns="http://www.w3.org/2000/svg" width="35" height="35" viewBox="0 0 35 35">
  <g id="Group_7016" data-name="Group 7016" transform="translate(-300 -1364)">
    <g id="Rectangle_1737" data-name="Rectangle 1737" transform="translate(300 1364)" fill="rgba(135,104,241,0.06)" stroke="#b3b9e2" stroke-width="1">
      <rect width="35" height="35" rx="5" stroke="none"/>
      <rect x="0.5" y="0.5" width="34" height="34" rx="4.5" fill="none"/>
    </g>
    <path id="users" d="M5.861,10.293A3.47,3.47,0,0,1,2.344,6.872,3.47,3.47,0,0,1,5.861,3.451,3.47,3.47,0,0,1,9.378,6.872a3.474,3.474,0,0,1-3.517,3.421Zm0-5.322a1.9,1.9,0,1,0,1.954,1.9A1.928,1.928,0,0,0,5.861,4.971ZM11.722,17.9v-.38a5.783,5.783,0,0,0-5.861-5.7A5.783,5.783,0,0,0,0,17.515v.38a.771.771,0,0,0,.781.76.771.771,0,0,0,.781-.76v-.38a4.241,4.241,0,0,1,4.3-4.181,4.241,4.241,0,0,1,4.3,4.181v.38a.782.782,0,0,0,1.563,0Z" transform="translate(312 1370.549)" fill="#b3b9e2"/>
  </g>
</svg>
