<svg xmlns="http://www.w3.org/2000/svg" width="35" height="35" viewBox="0 0 35 35">
  <g id="Group_7052" data-name="Group 7052" transform="translate(-1670 -949)">
    <g id="Path_2516" data-name="Path 2516" transform="translate(1670 949)" fill="rgba(65,216,135,0.06)">
      <path d="M 30 34.5 L 5 34.5 C 2.51869010925293 34.5 0.5 32.4813117980957 0.5 30 L 0.5 5 C 0.5 2.51869010925293 2.51869010925293 0.5 5 0.5 L 30 0.5 C 32.4813117980957 0.5 34.5 2.51869010925293 34.5 5 L 34.5 30 C 34.5 32.4813117980957 32.4813117980957 34.5 30 34.5 Z" stroke="none"/>
      <path d="M 5 1 C 2.794391632080078 1 1 2.794391632080078 1 5 L 1 30 C 1 32.20560836791992 2.794391632080078 34 5 34 L 30 34 C 32.20560836791992 34 34 32.20560836791992 34 30 L 34 5 C 34 2.794391632080078 32.20560836791992 1 30 1 L 5 1 M 5 0 L 30 0 C 32.76142120361328 0 35 2.238571166992188 35 5 L 35 30 C 35 32.76142120361328 32.76142120361328 35 30 35 L 5 35 C 2.238571166992188 35 0 32.76142120361328 0 30 L 0 5 C 0 2.238571166992188 2.238571166992188 0 5 0 Z" stroke="none" fill="#41d887"/>
    </g>
    <path id="Icon_ionic-ios-checkmark" data-name="Icon ionic-ios-checkmark" d="M26.935,13.693,25.579,12.3a.291.291,0,0,0-.216-.092h0a.28.28,0,0,0-.216.092l-9.4,9.467-3.42-3.42a.3.3,0,0,0-.431,0l-1.371,1.371a.307.307,0,0,0,0,.439l4.314,4.314a1.364,1.364,0,0,0,.9.439,1.43,1.43,0,0,0,.894-.424h.008l10.3-10.353A.329.329,0,0,0,26.935,13.693Z" transform="translate(1668.772 947.943)" fill="#41d887"/>
  </g>
</svg>
