<svg xmlns="http://www.w3.org/2000/svg" width="35" height="35" viewBox="0 0 35 35">
  <g id="Group_7015" data-name="Group 7015" transform="translate(-256 -1364)">
    <g id="Path_10231" data-name="Path 10231" transform="translate(256 1364)" fill="rgba(135,104,241,0.06)">
      <path d="M 30 34.5 L 5 34.5 C 2.51869010925293 34.5 0.5 32.4813117980957 0.5 30 L 0.5 5 C 0.5 2.51869010925293 2.51869010925293 0.5 5 0.5 L 30 0.5 C 32.4813117980957 0.5 34.5 2.51869010925293 34.5 5 L 34.5 30 C 34.5 32.4813117980957 32.4813117980957 34.5 30 34.5 Z" stroke="none"/>
      <path d="M 5 1 C 2.794391632080078 1 1 2.794391632080078 1 5 L 1 30 C 1 32.20560836791992 2.794391632080078 34 5 34 L 30 34 C 32.20560836791992 34 34 32.20560836791992 34 30 L 34 5 C 34 2.794391632080078 32.20560836791992 1 30 1 L 5 1 M 5 0 L 30 0 C 32.76142120361328 0 35 2.238571166992188 35 5 L 35 30 C 35 32.76142120361328 32.76142120361328 35 30 35 L 5 35 C 2.238571166992188 35 0 32.76142120361328 0 30 L 0 5 C 0 2.238571166992188 2.238571166992188 0 5 0 Z" stroke="none" fill="#b3b9e2"/>
    </g>
    <path id="reboot" d="M13.129,8.5a4.626,4.626,0,1,1-2.934-4.308l-.257-.65a.531.531,0,1,1,.988-.391l.848,2.144a.531.531,0,0,1-.3.689l-2.144.848a.531.531,0,0,1-.391-.988l1.239-.49A3.567,3.567,0,1,0,12.066,8.5a.531.531,0,1,1,1.063,0ZM17,8.5A8.5,8.5,0,1,1,8.5,0,8.51,8.51,0,0,1,17,8.5Zm-1.063,0A7.438,7.438,0,1,0,8.5,15.937,7.446,7.446,0,0,0,15.938,8.5Z" transform="translate(265 1373.001)" fill="#b3b9e2"/>
  </g>
</svg>
