<svg xmlns="http://www.w3.org/2000/svg" width="12.772" height="12.714" viewBox="0 0 12.772 12.714">
  <path id="Icon_material-wb-sunny" data-name="Icon material-wb-sunny" d="M4.844,3.316,3.8,2.276l-.819.819L4.02,4.134ZM3.242,6.6H1.5V7.763H3.242ZM8.467.825H7.306V2.538H8.467V.825Zm4.325,2.27-.819-.819L10.934,3.316l.819.819Zm-1.864,7.954,1.039,1.045.819-.819-1.045-1.039-.813.813Zm1.6-4.447V7.763h1.742V6.6ZM7.886,3.7a3.483,3.483,0,1,0,3.483,3.483A3.486,3.486,0,0,0,7.886,3.7Zm-.581,9.84H8.467V11.827H7.306ZM2.98,11.269l.819.819,1.039-1.045-.819-.819L2.98,11.269Z" transform="translate(-1.5 -0.825)" fill="#fff"/>
</svg>
