<svg xmlns="http://www.w3.org/2000/svg" width="9.361" height="10.213" viewBox="0 0 9.361 10.213">
  <path id="Icon_ionic-ios-moon" data-name="Icon ionic-ios-moon" d="M14.172,12.215c-.077,0-.154.005-.231.005a4.688,4.688,0,0,1-3.372-1.42,4.845,4.845,0,0,1-1.4-3.425,4.906,4.906,0,0,1,.465-2.093A6.931,6.931,0,0,1,10,4.659.1.1,0,0,0,9.9,4.5a5.144,5.144,0,0,0,.784,10.212A5.013,5.013,0,0,0,14.534,12.9a4.858,4.858,0,0,0,.436-.58.107.107,0,0,0-.109-.162A4.541,4.541,0,0,1,14.172,12.215Z" transform="translate(-5.625 -4.496)" fill="#fff"/>
</svg>
