<svg xmlns="http://www.w3.org/2000/svg" width="22.419" height="22.297" viewBox="0 0 22.419 22.297">
  <path id="Icon_awesome-arrow-left" data-name="Icon awesome-arrow-left" d="M9.41,14.887,8.6,15.7a.873.873,0,0,1-1.239,0L.258,8.6a.873.873,0,0,1,0-1.239l7.1-7.1A.873.873,0,0,1,8.6.258l.811.811A.878.878,0,0,1,9.4,2.322l-4.4,4.194h10.5a.875.875,0,0,1,.877.877V8.562a.875.875,0,0,1-.877.877H4.993l4.4,4.194A.872.872,0,0,1,9.41,14.887Z" transform="matrix(-0.839, 0.545, -0.545, -0.839, 22.419, 13.381)" fill="#b3b9e2" opacity="0.5"/>
</svg>
