<svg xmlns="http://www.w3.org/2000/svg" width="16.181" height="16.21" viewBox="0 0 16.181 16.21">
  <path id="Icon_feather-phone" data-name="Icon feather-phone" d="M17.347,13.637v2.139A1.426,1.426,0,0,1,15.793,17.2,14.11,14.11,0,0,1,9.64,15.013a13.9,13.9,0,0,1-4.278-4.278A14.11,14.11,0,0,1,3.174,4.554,1.426,1.426,0,0,1,4.592,3H6.731A1.426,1.426,0,0,1,8.157,4.226a9.154,9.154,0,0,0,.5,2,1.426,1.426,0,0,1-.321,1.5l-.905.905a11.407,11.407,0,0,0,4.278,4.278l.905-.905a1.426,1.426,0,0,1,1.5-.321,9.154,9.154,0,0,0,2,.5,1.426,1.426,0,0,1,1.226,1.447Z" transform="translate(-2.168 -2)" fill="none" stroke="#f1f5fb" stroke-linecap="round" stroke-linejoin="round" stroke-width="2"/>
</svg>
