<svg xmlns="http://www.w3.org/2000/svg" width="38" height="38" viewBox="0 0 38 38">
  <g id="Group_7383" data-name="Group 7383" transform="translate(-153 -83)">
    <circle id="Ellipse_126" data-name="Ellipse 126" cx="19" cy="19" r="19" transform="translate(153 83)" fill="#181f2f"/>
    <g id="apps" transform="translate(164.21 94.21)">
      <path id="Path_46" data-name="Path 46" d="M4.544,0H2.6A2.6,2.6,0,0,0,0,2.6V4.544a2.6,2.6,0,0,0,2.6,2.6H4.544a2.6,2.6,0,0,0,2.6-2.6V2.6A2.6,2.6,0,0,0,4.544,0Zm1.3,4.544a1.3,1.3,0,0,1-1.3,1.3H2.6a1.3,1.3,0,0,1-1.3-1.3V2.6A1.3,1.3,0,0,1,2.6,1.3H4.544a1.3,1.3,0,0,1,1.3,1.3Z" fill="#fff"/>
      <path id="Path_47" data-name="Path 47" d="M17.544,0H15.6A2.6,2.6,0,0,0,13,2.6V4.544a2.6,2.6,0,0,0,2.6,2.6h1.947a2.6,2.6,0,0,0,2.6-2.6V2.6A2.6,2.6,0,0,0,17.544,0Zm1.3,4.544a1.3,1.3,0,0,1-1.3,1.3H15.6a1.3,1.3,0,0,1-1.3-1.3V2.6a1.3,1.3,0,0,1,1.3-1.3h1.947a1.3,1.3,0,0,1,1.3,1.3Z" transform="translate(-4.561)" fill="#fff"/>
      <path id="Path_48" data-name="Path 48" d="M4.544,13H2.6A2.6,2.6,0,0,0,0,15.6v1.947a2.6,2.6,0,0,0,2.6,2.6H4.544a2.6,2.6,0,0,0,2.6-2.6V15.6A2.6,2.6,0,0,0,4.544,13Zm1.3,4.544a1.3,1.3,0,0,1-1.3,1.3H2.6a1.3,1.3,0,0,1-1.3-1.3V15.6a1.3,1.3,0,0,1,1.3-1.3H4.544a1.3,1.3,0,0,1,1.3,1.3Z" transform="translate(0 -4.561)" fill="#fff"/>
      <path id="Path_49" data-name="Path 49" d="M17.544,13H15.6A2.6,2.6,0,0,0,13,15.6v1.947a2.6,2.6,0,0,0,2.6,2.6h1.947a2.6,2.6,0,0,0,2.6-2.6V15.6A2.6,2.6,0,0,0,17.544,13Zm1.3,4.544a1.3,1.3,0,0,1-1.3,1.3H15.6a1.3,1.3,0,0,1-1.3-1.3V15.6a1.3,1.3,0,0,1,1.3-1.3h1.947a1.3,1.3,0,0,1,1.3,1.3Z" transform="translate(-4.561 -4.561)" fill="#fff"/>
    </g>
  </g>
</svg>
