<svg id="Layer_1" data-name="Layer 1" xmlns="http://www.w3.org/2000/svg" viewBox="0 0 128 128"><defs><style>.cls-1{fill:#000;}</style></defs><title>Materials Preserved</title><path class="cls-1" d="M97.79,122a2.38,2.38,0,0,1-.58-.08,2,2,0,0,1-1.34-2.49l2.36-7.87a1.07,1.07,0,0,0-.08-.84,1.14,1.14,0,0,0-.65-.53l-21.06-6.31a1.11,1.11,0,0,0-1.37.74l-2.36,7.86a2,2,0,1,1-3.83-1.15l2.36-7.86a5.09,5.09,0,0,1,6.35-3.42l21,6.31a5.09,5.09,0,0,1,3.42,6.35l-2.36,7.86A2,2,0,0,1,97.79,122Z"/><path class="cls-1" d="M77,104a2.32,2.32,0,0,1-.58-.08,2,2,0,0,1-1.34-2.49l2.61-8.71a23.45,23.45,0,0,1,6-9.91l3.24-3.13a13.32,13.32,0,0,0,3.44-5.7L92.1,68a6.49,6.49,0,0,1,12.62.81,6.26,6.26,0,0,1-.18,2.91L99.73,87.82a2,2,0,1,1-3.83-1.15l4.81-16a2.32,2.32,0,0,0,.06-1.11,2.51,2.51,0,0,0-1.73-2,2.54,2.54,0,0,0-1.89.2,2.43,2.43,0,0,0-1.21,1.48l-1.77,5.9a17.42,17.42,0,0,1-4.49,7.41l-3.23,3.13a19.43,19.43,0,0,0-4.94,8.2l-2.61,8.7A2,2,0,0,1,77,104Z"/><path class="cls-1" d="M98.28,110.37a2.08,2.08,0,0,1-.68-.12,2,2,0,0,1-1.2-2.56c1.58-4.36,3-5.74,7-9.43l.68-.64c.3-.27.63-.58,1-.87,8.69-6.94,8.59-12.33,8.54-14.63v-.59c0-.84-.85-7.3-4.72-33.19a2.26,2.26,0,0,0-1.61-1.85,2.32,2.32,0,0,0-1.08-.07,2.28,2.28,0,0,0-1.85,2.32l.38,20.39a2,2,0,1,1-4,.08l-.39-20.36a6.32,6.32,0,0,1,5.18-6.38,6.56,6.56,0,0,1,2.9.18,6.27,6.27,0,0,1,4.42,5.1c4.22,28.24,4.76,32.9,4.76,33.8V82c.06,2.89.19,9.66-10.08,17.86a9.53,9.53,0,0,0-.73.64l-.68.64c-3.81,3.57-4.72,4.42-6,7.87A2,2,0,0,1,98.28,110.37Z"/><path class="cls-1" d="M30.21,122a2,2,0,0,1-1.91-1.43l-2.36-7.86a5.09,5.09,0,0,1,3.42-6.35l21-6.31a5.09,5.09,0,0,1,6.35,3.42l2.36,7.86a2,2,0,1,1-3.83,1.15l-2.36-7.86a1.11,1.11,0,0,0-1.37-.74L30.5,110.19a1.14,1.14,0,0,0-.65.53,1.07,1.07,0,0,0-.08.84l2.36,7.87a2,2,0,0,1-1.34,2.49A2.38,2.38,0,0,1,30.21,122Z"/><path class="cls-1" d="M51,104a2,2,0,0,1-1.91-1.43l-2.61-8.7a19.45,19.45,0,0,0-5-8.21l-3.21-3.11a17.43,17.43,0,0,1-4.5-7.42l-1.77-5.9a2.43,2.43,0,0,0-1.21-1.48,2.54,2.54,0,0,0-1.89-.2,2.51,2.51,0,0,0-1.73,2,2.42,2.42,0,0,0,.06,1.14l4.81,16a2,2,0,0,1-3.83,1.15L23.46,71.76a6.36,6.36,0,0,1-.18-2.94A6.49,6.49,0,0,1,35.9,68l1.77,5.9a13.32,13.32,0,0,0,3.44,5.7l3.22,3.12a23.38,23.38,0,0,1,6,9.92l2.61,8.71a2,2,0,0,1-1.34,2.49A2.32,2.32,0,0,1,51,104Z"/><path class="cls-1" d="M29.72,110.37a2,2,0,0,1-1.88-1.32c-1.25-3.45-2.16-4.3-6-7.87l-.68-.64a8,8,0,0,0-.7-.61C10.19,91.7,10.32,84.93,10.38,82v-.47c0-.92.54-5.58,4.76-33.82a6.27,6.27,0,0,1,4.42-5.1,6.53,6.53,0,0,1,2.85-.19,6.34,6.34,0,0,1,5.23,6.42l-.39,20.33a2,2,0,1,1-4-.08l.38-20.36a2.25,2.25,0,0,0-2.93-2.28,2.26,2.26,0,0,0-1.61,1.86c-3.87,25.88-4.7,32.34-4.72,33.21v.56c-.05,2.3-.15,7.69,8.57,14.66a11.72,11.72,0,0,1,1,.84l.69.64c3.94,3.69,5.41,5.07,7,9.43a2,2,0,0,1-1.2,2.56A2.08,2.08,0,0,1,29.72,110.37Z"/><path class="cls-1" d="M65.05,64.43a2,2,0,0,1-1-.3,48.49,48.49,0,0,1-10.1-8.8c-6.37-7.4-8.65-15.29-6.57-22.82a46.85,46.85,0,0,1,6.85-15.12c2-3,3-4.56,2.33-9.08a2,2,0,0,1,2.72-2.17C60.09,6.49,80.15,14.7,83,31c1.81,10.39-3.78,21.46-16.63,32.89A2,2,0,0,1,65.05,64.43ZM60.72,11.27c-.1,3.66-1.52,5.79-3.2,8.34a42.41,42.41,0,0,0-6.33,14C47.65,46.39,60.71,56.92,64.87,59.9c10.93-10.06,15.7-19.53,14.2-28.17C77.2,21.05,66.13,14.08,60.72,11.27Z"/><path class="cls-1" d="M56.85,72.68a2,2,0,0,1-1.16-3.63c20.69-14.78,9.23-44.64,9.11-44.94a2,2,0,0,1,3.73-1.46C68.66,23,81.22,55.73,58,72.31A2,2,0,0,1,56.85,72.68Z"/></svg>