<svg id="Layer_1" data-name="Layer 1" xmlns="http://www.w3.org/2000/svg" viewBox="0 0 128 128"><defs><style>.cls-1{fill:none;stroke:#edb50c;stroke-linecap:round;stroke-linejoin:round;stroke-width:4px;}</style></defs><title>Metals</title><polygon class="cls-1" points="40.69 107.9 40.69 81.33 62.64 64.4 68.8 73.64 79.19 55.93 93.05 52.46 100.75 70.56 111.15 68.64 120 81.72 120 107.9 40.69 107.9"/><polyline class="cls-1" points="40.69 94.78 51.86 87.88 64.18 95.97 73.8 85.19 85.74 90.58 88.93 98.89 92.4 107.9"/><polyline class="cls-1" points="88.93 98.89 108.45 86.34 113.07 94.43 120 95.62"/><line class="cls-1" x1="59.93" y1="93.18" x2="50.59" y2="107.9"/><line class="cls-1" x1="72" y1="55" x2="76" y2="41"/><line class="cls-1" x1="80" y1="50" x2="86" y2="43"/><line class="cls-1" x1="58" y1="59" x2="49" y2="56"/><rect class="cls-1" x="48" y="28.15" width="14.63" height="13.86" rx="4.35" transform="translate(48.4 -30.06) rotate(51.56)"/><path class="cls-1" d="M52.6,27.9a36.39,36.39,0,0,0-5.22-3.68,33.37,33.37,0,0,0-3-1.59,32,32,0,0,0-3.17-1.24c-.54-.17-1.07-.36-1.62-.5s-1.1-.27-1.66-.38c-.27-.05-.54-.12-.83-.16l-.84-.11c-.56-.06-1.12-.12-1.68-.14,1.79,1.4,3.55,2.6,5.19,4,.2.17.41.33.62.49l.6.51c.4.35.81.67,1.21,1,.77.71,1.56,1.36,2.31,2.08,1.23,1.13,2.42,2.28,3.57,3.47"/><path class="cls-1" d="M61.69,39.35a37.06,37.06,0,0,1,2.4,5.92c.36,1.08.61,2.2.86,3.3a31.81,31.81,0,0,1,.49,3.37c0,.57.11,1.13.12,1.69s0,1.14,0,1.7c0,.29,0,.56,0,.85l-.09.84c-.06.56-.13,1.12-.24,1.67-1-2.06-1.72-4-2.69-5.95-.12-.24-.22-.48-.33-.72l-.37-.7-.7-1.4c-.52-.91-1-1.84-1.51-2.73Q58.36,45,57,42.92"/><path class="cls-1" d="M52.26,42.27,16.89,72.63a4.84,4.84,0,0,1-7-.63l-.86-1.09A4.84,4.84,0,0,1,10,64l37.6-27.55"/></svg>