<svg xmlns="http://www.w3.org/2000/svg" width="16.97" height="16.972" viewBox="0 0 16.97 16.972">
  <path id="paper-plane_1_" data-name="paper-plane (1)" d="M16.35.624A2.1,2.1,0,0,0,14.37.058L3.055,2.441a3.532,3.532,0,0,0-2.018,6L2.252,9.653a.707.707,0,0,1,.207.5v2.24a2.1,2.1,0,0,0,.212.909l-.006,0,.018.018a2.122,2.122,0,0,0,.963.959l.018.018,0-.006a2.1,2.1,0,0,0,.909.212H6.82a.707.707,0,0,1,.5.206l1.214,1.214a3.51,3.51,0,0,0,2.489,1.042,3.571,3.571,0,0,0,1.135-.187,3.489,3.489,0,0,0,2.365-2.819L16.91,2.627a2.1,2.1,0,0,0-.56-2ZM3.254,8.655,2.038,7.44a2.079,2.079,0,0,1-.511-2.174A2.106,2.106,0,0,1,3.3,3.834L14.5,1.475,3.873,12.1V10.154A2.106,2.106,0,0,0,3.254,8.655Zm9.88,5.071a2.122,2.122,0,0,1-3.6,1.211L8.319,13.72a2.106,2.106,0,0,0-1.5-.621H4.872L15.5,2.475Z" transform="translate(-0.003 -0.001)" fill="#fff"/>
</svg>
