<svg xmlns="http://www.w3.org/2000/svg" width="35" height="35" viewBox="0 0 35 35">
  <g id="Path_2516" data-name="Path 2516" fill="rgba(253,177,40,0.06)">
    <path d="M 30 34.5 L 5 34.5 C 2.51869010925293 34.5 0.5 32.4813117980957 0.5 30 L 0.5 5 C 0.5 2.51869010925293 2.51869010925293 0.5 5 0.5 L 30 0.5 C 32.4813117980957 0.5 34.5 2.51869010925293 34.5 5 L 34.5 30 C 34.5 32.4813117980957 32.4813117980957 34.5 30 34.5 Z" stroke="none"/>
    <path d="M 5 1 C 2.794391632080078 1 1 2.794391632080078 1 5 L 1 30 C 1 32.20560836791992 2.794391632080078 34 5 34 L 30 34 C 32.20560836791992 34 34 32.20560836791992 34 30 L 34 5 C 34 2.794391632080078 32.20560836791992 1 30 1 L 5 1 M 5 0 L 30 0 C 32.76142120361328 0 35 2.238571166992188 35 5 L 35 30 C 35 32.76142120361328 32.76142120361328 35 30 35 L 5 35 C 2.238571166992188 35 0 32.76142120361328 0 30 L 0 5 C 0 2.238571166992188 2.238571166992188 0 5 0 Z" stroke="none" fill="#fdb128"/>
  </g>
</svg>
