<svg id="Layer_1" data-name="Layer 1" xmlns="http://www.w3.org/2000/svg" viewBox="0 0 128 128"><defs><style>.cls-1{fill:#fff;}</style></defs><title>Plastics</title><path class="cls-1" d="M53.86,122H25a2,2,0,0,1-1.25-.43c-9.93-7.88-7.18-16.42-5.7-21a2,2,0,0,1,.08-.22c.13-.33.25-.65.36-1a20,20,0,0,0-.73-14.66,24.55,24.55,0,0,1-1.63-4.87,11,11,0,0,1-.2-1.63l-.72-17.66c-.12-2.81.89-5.84,3.25-9.8,1.25-2.09,2.73-4.22,4.3-6.48.85-1.23,1.73-2.49,2.59-3.77,4.45-6.68,3.75-18.09,3.74-18.21A2,2,0,0,1,33,22c0,.52.79,12.89-4.41,20.69C27.75,44,26.86,45.3,26,46.56c-1.53,2.19-3,4.27-4.14,6.24-1.92,3.21-2.77,5.62-2.7,7.59L19.88,78A5.8,5.8,0,0,0,20,79a21,21,0,0,0,1.38,4.07,23.72,23.72,0,0,1,.84,17.58c-.12.34-.26.7-.41,1.08C20.4,106.17,18.55,112,25.66,118H53.38a2,2,0,0,1,2,3.32,1.86,1.86,0,0,1-.26.23A2.15,2.15,0,0,1,53.86,122Zm-1.29-3.52,0,0,0,0Z"/><path class="cls-1" d="M48.45,34.46a2,2,0,0,1-2-1.64A48.7,48.7,0,0,1,45.77,22a2,2,0,0,1,4,.26,44.7,44.7,0,0,0,.65,9.81,2,2,0,0,1-1.6,2.33Z"/><path class="cls-1" d="M57.75,52.28a1.91,1.91,0,0,1-.84-.19A2,2,0,1,1,59,48.75a1.86,1.86,0,0,1,.49.63,2,2,0,0,1,0,1.73A2,2,0,0,1,57.75,52.28Z"/><path class="cls-1" d="M60.6,57.53a2,2,0,1,1,2-2A2,2,0,0,1,60.6,57.53Z"/><path class="cls-1" d="M43.26,81.45H18a2,2,0,0,1-1.95-1.6,10.08,10.08,0,0,1-.21-1.64l-.72-17.66c-.12-2.81.89-5.84,3.25-9.8a2,2,0,0,1,1.72-1H43.26a2,2,0,0,1,0,4h-22c-1.53,2.74-2.21,4.86-2.14,6.62l.7,17.06H43.26a2,2,0,1,1,0,4Z"/><path class="cls-1" d="M60.6,57.53a2,2,0,1,1,2-2A2,2,0,0,1,60.6,57.53Z"/><path class="cls-1" d="M47.77,24.16H31a3.29,3.29,0,0,1-3.29-3.29V13.25A7.25,7.25,0,0,1,35,6h8.82a7.26,7.26,0,0,1,7.25,7.25v7.62A3.29,3.29,0,0,1,47.77,24.16Zm-16-4H47.06V13.25A3.26,3.26,0,0,0,43.81,10H35a3.25,3.25,0,0,0-3.24,3.25Z"/><path class="cls-1" d="M102.06,122h0a23.74,23.74,0,0,1-8.61-1.61l-.35-.13a22.42,22.42,0,0,0-8-1.48h-16a22.44,22.44,0,0,0-8,1.48l-.35.13A23.9,23.9,0,0,1,52,122a10.77,10.77,0,0,1-10.78-10.77V35.51a5.06,5.06,0,0,1,5.05-5h7.74a5.06,5.06,0,0,1,5.05,5V46A12.83,12.83,0,0,0,71.91,58.78H82.2A12.83,12.83,0,0,0,95,46V35.51a5.06,5.06,0,0,1,5-5h7.74a5.06,5.06,0,0,1,5,5v75.72A10.79,10.79,0,0,1,102.06,122Zm-33-7.22h16a26.53,26.53,0,0,1,9.44,1.74l.35.14a20.14,20.14,0,0,0,7.19,1.34,6.91,6.91,0,0,0,4.81-2,6.73,6.73,0,0,0,2-4.78V35.51a1,1,0,0,0-1-1h-7.74a1,1,0,0,0-1,1V46A16.83,16.83,0,0,1,82.2,62.78H71.91A16.83,16.83,0,0,1,55.1,46V35.51a1,1,0,0,0-1.05-1H46.31a1.06,1.06,0,0,0-1.05,1v75.72A6.78,6.78,0,0,0,52,118a20,20,0,0,0,7.21-1.34l.35-.14A26.59,26.59,0,0,1,69.05,114.78Z"/><path class="cls-1" d="M91,101.4H63.1a5.74,5.74,0,0,1-5.74-5.74V82.55A5.75,5.75,0,0,1,63.1,76.8H91a5.76,5.76,0,0,1,5.74,5.75V95.66A5.75,5.75,0,0,1,91,101.4ZM63.1,80.8a1.75,1.75,0,0,0-1.74,1.75V95.66A1.74,1.74,0,0,0,63.1,97.4H91a1.74,1.74,0,0,0,1.74-1.74V82.55A1.75,1.75,0,0,0,91,80.8Z"/></svg>