<svg xmlns="http://www.w3.org/2000/svg" width="38" height="38" viewBox="0 0 38 38">
  <g id="Group_7385" data-name="Group 7385" transform="translate(-1300 -83)">
    <circle id="Ellipse_126" data-name="Ellipse 126" cx="19" cy="19" r="19" transform="translate(1300 83)" fill="#02bbff"/>
    <g id="raindrops" transform="translate(1308.748 95.214)">
      <path id="Path_10227" data-name="Path 10227" d="M11.9,21.318a4.906,4.906,0,0,1-4.9-4.9c0-1.274.98-3.3,2.9-6.035a2.464,2.464,0,0,1,4,0c1.922,2.731,2.9,4.761,2.9,6.035A4.906,4.906,0,0,1,11.9,21.318Zm0-10.339a.8.8,0,0,0-.664.345c-2.349,3.332-2.6,4.672-2.6,5.093a3.267,3.267,0,1,0,6.535,0c0-.421-.254-1.761-2.6-5.093A.8.8,0,0,0,11.9,10.979Z" transform="translate(-1.282 -1.711)" fill="#fff"/>
      <path id="Path_10228" data-name="Path 10228" d="M4.084,8.987A4.089,4.089,0,0,1,0,4.9C0,3.874.688,2.571,2.1.919a2.614,2.614,0,0,1,3.963,0c1.415,1.65,2.1,2.953,2.1,3.984A4.089,4.089,0,0,1,4.084,8.987Zm0-7.352a.958.958,0,0,0-.74.344C1.757,3.832,1.634,4.684,1.634,4.9a2.451,2.451,0,0,0,4.9,0c0-.217-.123-1.069-1.711-2.921a.957.957,0,0,0-.74-.346Z" fill="#fff"/>
      <path id="Path_10229" data-name="Path 10229" d="M18.676,8.141A3.68,3.68,0,0,1,15,4.465c0-.891.572-2.047,1.753-3.534a2.467,2.467,0,0,1,3.846,0c1.181,1.487,1.753,2.643,1.753,3.534a3.68,3.68,0,0,1-3.676,3.676Zm0-6.505a.817.817,0,0,0-.643.311c-1.3,1.637-1.4,2.341-1.4,2.518a2.042,2.042,0,0,0,4.084,0c0-.177-.1-.881-1.4-2.518a.817.817,0,0,0-.643-.312Z" transform="translate(-2.747 0)" fill="#fff"/>
    </g>
  </g>
</svg>
