<svg id="sign-out-alt" xmlns="http://www.w3.org/2000/svg" width="17.001" height="17.184" viewBox="0 0 17.001 17.184">
  <path id="Path_3787" data-name="Path 3787" d="M8.217,10.74a.716.716,0,0,0-.716.716V13.6a2.148,2.148,0,0,1-2.148,2.148H3.58A2.148,2.148,0,0,1,1.432,13.6V3.58A2.148,2.148,0,0,1,3.58,1.432H5.353A2.148,2.148,0,0,1,7.5,3.58V5.728a.716.716,0,1,0,1.432,0V3.58A3.584,3.584,0,0,0,5.353,0H3.58A3.584,3.584,0,0,0,0,3.58V13.6a3.584,3.584,0,0,0,3.58,3.58H5.353a3.584,3.584,0,0,0,3.58-3.58V11.456A.716.716,0,0,0,8.217,10.74Z" fill="#8768f1"/>
  <path id="Path_3788" data-name="Path 3788" d="M17.792,8.493,14.509,5.21A.716.716,0,1,0,13.5,6.222l3.052,3.052L5.716,9.3a.716.716,0,0,0,0,1.432h0l10.874-.022-3.1,3.1a.716.716,0,1,0,1.012,1.012l3.283-3.284a2.148,2.148,0,0,0,0-3.037Z" transform="translate(-1.42 -1.42)" fill="#8768f1"/>
</svg>
