<svg id="team" xmlns="http://www.w3.org/2000/svg" width="38" height="38" viewBox="0 0 38 38">
  <circle id="Ellipse_508" data-name="Ellipse 508" cx="19" cy="19" r="19" fill="#181f2f"/>
  <path id="users" d="M6.471,11.216a3.882,3.882,0,1,1,3.882-3.882,3.882,3.882,0,0,1-3.882,3.882Zm0-6.039A2.157,2.157,0,1,0,8.628,7.333,2.157,2.157,0,0,0,6.471,5.177Zm6.471,14.667v-.431A6.471,6.471,0,0,0,0,19.412v.431a.863.863,0,1,0,1.726,0v-.431a4.745,4.745,0,1,1,9.49,0v.431a.863.863,0,1,0,1.726,0Zm7.765-4.314a6.039,6.039,0,0,0-10.066-4.5.863.863,0,1,0,1.151,1.286,4.314,4.314,0,0,1,7.189,3.215.863.863,0,0,0,1.726,0ZM15.1,7.765a3.882,3.882,0,1,1,3.882-3.882A3.882,3.882,0,0,1,15.1,7.765Zm0-6.039a2.157,2.157,0,1,0,2.157,2.157A2.157,2.157,0,0,0,15.1,1.726Z" transform="translate(8.646 9)" fill="#fff"/>
</svg>
