<svg id="upload" xmlns="http://www.w3.org/2000/svg" width="26.529" height="26.529" viewBox="0 0 26.529 26.529">
  <path id="Path_2513" data-name="Path 2513" d="M13.265,0A13.265,13.265,0,1,0,26.529,13.265,13.28,13.28,0,0,0,13.265,0Zm0,24.117A10.853,10.853,0,1,1,24.117,13.265,10.865,10.865,0,0,1,13.265,24.117Z" fill="#fff"/>
  <path id="Path_2514" data-name="Path 2514" d="M99.39,60.353a1.206,1.206,0,0,0-1.705,0l-4.6,4.6a1.206,1.206,0,0,0,1.705,1.705l2.546-2.546v6.736a1.206,1.206,0,1,0,2.412,0V64.117l2.546,2.546a1.206,1.206,0,1,0,1.705-1.705Z" transform="translate(111.802 76.883) rotate(180)" fill="#fff"/>
  <path id="Path_2515" data-name="Path 2515" d="M126.029,240h-4.823a1.206,1.206,0,0,0,0,2.412h4.823a1.206,1.206,0,0,0,0-2.412Z" transform="translate(-110.353 -220.706)" fill="#fff"/>
</svg>
