<svg xmlns="http://www.w3.org/2000/svg" width="16.083" height="20" viewBox="0 0 16.083 20">
  <g id="user_2_" data-name="user (2)" transform="translate(-3)">
    <path id="Path_126" data-name="Path 126" d="M11.361,10.722A5.361,5.361,0,1,0,6,5.361a5.361,5.361,0,0,0,5.361,5.361Zm0-8.935A3.574,3.574,0,1,1,7.787,5.361a3.574,3.574,0,0,1,3.574-3.574Z" transform="translate(-0.319)" fill="#fff"/>
    <path id="Path_127" data-name="Path 127" d="M11.042,14A8.05,8.05,0,0,0,3,22.042a.894.894,0,1,0,1.787,0,6.255,6.255,0,1,1,12.509,0,.894.894,0,0,0,1.787,0A8.05,8.05,0,0,0,11.042,14Z" transform="translate(0 -2.935)" fill="#fff"/>
  </g>
</svg>
